<?xml version="1.0" encoding="UTF-8"?>
<svg width="1200pt" height="1200pt" version="1.1" viewBox="0 0 1200 1200" xmlns="http://www.w3.org/2000/svg">
 <g>
  <path d="m904.69 234.38c-30.938 0-51.562-20.625-51.562-51.562v-34.688l86.25 86.25zm92.812 5.625-150-150c-3.75-3.75-8.4375-5.625-13.125-5.625h-539.06c-51.562 0-98.438 37.5-98.438 89.062v360.94h37.5v-360.94c0-30.938 30-51.562 60.938-51.562h520.31v60.938c0 51.562 37.5 89.062 89.062 89.062h60.938v745.31c0 30.938-20.625 60.938-51.562 60.938h-618.75c-30.938 0-60.938-30-60.938-60.938v-70.312h-37.5v70.312c0 51.562 46.875 98.438 98.438 98.438h618.75c51.562 0 89.062-46.875 89.062-98.438v-764.06c0-4.6875-1.875-9.375-5.625-13.125z"/>
  <path d="m656.25 834.38c0 30.938-25.312 56.25-56.25 56.25h-403.12c-30.938 0-56.25-25.312-56.25-56.25v-187.5c0-30.938 25.312-56.25 56.25-56.25h403.12c30.938 0 56.25 25.312 56.25 56.25zm37.5-187.5c0-51.562-42.188-93.75-93.75-93.75h-403.12c-51.562 0-93.75 42.188-93.75 93.75v187.5c0 51.562 42.188 93.75 93.75 93.75h403.12c51.562 0 93.75-42.188 93.75-93.75z"/>
  <path d="m185.62 680.62h82.5v22.5h-56.25v30h45v21.562h-45v30h56.25v22.5h-82.5z"/>
  <path d="m335.62 748.12c13.125 0 19.688-7.5 19.688-23.438s-6.5625-22.5-19.688-22.5h-20.625v45.938zm-20.625 22.5v36.562h-25.312v-126.56h46.875c30 0 45 15 45 44.062s-15 45.938-45 45.938z"/>
  <path d="m446.25 787.5c15 0 22.5-7.5 22.5-22.5v-84.375h25.312v84.375c0 31.875-16.875 45-48.75 45s-48.75-13.125-48.75-45v-84.375h25.312v84.375c1.875 15 9.375 22.5 24.375 22.5z"/>
  <path d="m546.56 754.69v30.938h23.438c10.312 0 16.875-2.8125 16.875-15.938 0-10.312-6.5625-15-16.875-15zm0-52.5v30h22.5c10.312 0 15-5.625 15-15 0-10.312-4.6875-15-15-15zm24.375-21.562c25.312 0 39.375 9.375 39.375 33.75 0 14.062-3.75 21.562-14.062 28.125 11.25 4.6875 16.875 12.188 16.875 29.062 0 25.312-15.938 36.562-41.25 36.562h-50.625v-127.5z"/>
 </g>
</svg>
